<?xml version="1.0" encoding="UTF-8" standalone="no"?>
<!-- Created with Inkscape (http://www.inkscape.org/) -->

<svg
   width="47.566902mm"
   height="25.400257mm"
   viewBox="0 0 47.566902 25.400257"
   version="1.1"
   id="svg1"
   xmlns="http://www.w3.org/2000/svg"
   xmlns:svg="http://www.w3.org/2000/svg">
  <defs
     id="defs1" />
  <g
     id="layer1"
     transform="translate(-25.319354,-74.307973)">
    <path
       style="font-weight:500;font-size:25.4px;font-family:Orbitron;-inkscape-font-specification:'Orbitron Medium';text-align:center;letter-spacing:0.529167px;text-anchor:middle;fill:#1e90ff;stroke-width:0.2;stroke-opacity:0.506992"
       d="M 40.509972,97.041267 V 82.055268 q 0,-0.9144 0.4318,-1.651 0.4572,-0.762 1.1938,-1.1938 0.762,-0.4572 1.6764,-0.4572 h 11.6586 q 0.9144,0 1.6764,0.4572 0.762,0.4318 1.1938,1.1938 0.4572,0.7366 0.4572,1.651 v 14.985999 h -2.7686 v -6.4008 h -12.7762 v 6.4008 z m 2.7432,-9.143999 h 12.7762 v -5.7658 q 0,-0.254 -0.1778,-0.4318 -0.1778,-0.2032 -0.4318,-0.2032 h -11.5316 q -0.254,0 -0.4572,0.2032 -0.1778,0.1778 -0.1778,0.4318 z"
       id="text1"
       aria-label=" A" />
    <path
       d="m 31.246008,99.708229 q -1.164164,0 -2.15194,-0.564443 -0.952498,-0.599721 -1.552219,-1.552219 -0.564443,-0.987775 -0.564443,-2.151939 V 89.689363 L 25.319354,88.666309 V 85.27965 l 1.658052,-0.881942 v -5.785543 q 0,-1.199441 0.564443,-2.151939 0.599721,-0.987776 1.552219,-1.552219 0.987776,-0.599721 2.15194,-0.599721 h 1.023053 v 2.928049 h -1.023053 q -0.564443,0 -0.987776,0.423332 -0.388054,0.388055 -0.388054,0.952498 v 6.032487 l -2.963327,2.363606 2.963327,2.434161 v 5.997209 q 0,0.564443 0.388054,0.987775 0.423333,0.388055 0.987776,0.388055 h 1.023053 v 2.892771 z"
       id="text15"
       style="font-size:35.2777px;font-family:Orbitron;-inkscape-font-specification:Orbitron;text-align:center;letter-spacing:0.529167px;text-anchor:middle;fill:#e0e0e0;stroke-width:0.2;stroke-opacity:0.506992"
       aria-label="{" />
    <path
       d="m 65.97183,99.707916 v 0 -2.892771 h 1.023053 q 0.564443,0 0.952498,-0.388055 0.423332,-0.423332 0.423332,-0.987775 v -5.961931 l 2.963327,-2.434162 -2.963327,-2.328328 v -6.103041 q 0,-0.564444 -0.423332,-0.952498 -0.388055,-0.423333 -0.952498,-0.423333 H 65.97183 v -2.928049 h 1.023053 q 1.164164,0 2.116662,0.599721 0.987775,0.564443 1.552218,1.552219 0.599721,0.952498 0.599721,2.15194 v 5.785542 l 1.622774,0.952498 v 3.351381 l -1.622774,1.023054 v 5.714987 q 0,1.164164 -0.599721,2.151939 -0.564443,0.952498 -1.552218,1.552219 -0.952498,0.564443 -2.116662,0.564443 z"
       id="text15-6"
       style="font-size:35.2777px;font-family:Orbitron;-inkscape-font-specification:Orbitron;text-align:center;letter-spacing:0.529167px;text-anchor:middle;fill:#e0e0e0;stroke-width:0.2;stroke-opacity:0.506992"
       aria-label="}" />
  </g>
</svg>
