<?xml version="1.0" encoding="UTF-8" standalone="no"?>
<!-- Created with Inkscape (http://www.inkscape.org/) -->

<svg
   width="253.41132mm"
   height="28.575296mm"
   viewBox="0 0 253.41132 28.575296"
   version="1.1"
   id="svg1"
   xmlns="http://www.w3.org/2000/svg"
   xmlns:svg="http://www.w3.org/2000/svg">
  <defs
     id="defs1" />
  <g
     id="layer1"
     transform="translate(-25.319354,-74.307973)">
    <g
       id="text1"
       style="font-size:25.4px;font-family:'Libre Baskerville';-inkscape-font-specification:'Libre Baskerville';letter-spacing:0.529167px;fill-opacity:0.305321;stroke:#000000;stroke-width:0.2;stroke-opacity:0.506992"
       aria-label=" Active / Syntax ">
      <path
         style="font-weight:500;font-family:Orbitron;-inkscape-font-specification:'Orbitron Medium';text-align:center;text-anchor:middle;fill:#1e90ff;fill-opacity:1;stroke:none"
         d="M 44.229175,97.041267 V 82.055268 q 0,-0.9144 0.4318,-1.651 0.4572,-0.762 1.1938,-1.1938 0.762,-0.4572 1.6764,-0.4572 h 11.6586 q 0.9144,0 1.6764,0.4572 0.762,0.4318 1.1938,1.1938 0.4572,0.7366 0.4572,1.651 v 14.985999 h -2.7686 v -6.4008 h -12.7762 v 6.4008 z m 2.7432,-9.143999 h 12.7762 v -5.7658 q 0,-0.254 -0.1778,-0.4318 -0.1778,-0.2032 -0.4318,-0.2032 h -11.5316 q -0.254,0 -0.4572,0.2032 -0.1778,0.1778 -0.1778,0.4318 z m 22.144578,9.143999 q -0.9144,0 -1.651,-0.4572 -0.7366,-0.4572 -1.1938,-1.1938 -0.4572,-0.7366 -0.4572,-1.651 v -8.127999 q 0,-0.9144 0.4572,-1.651 0.4572,-0.7366 1.1938,-1.1938 0.7366,-0.4572 1.651,-0.4572 h 11.6332 v 2.7432 h -11.557 q -0.254,0 -0.4572,0.2032 -0.1778,0.1778 -0.1778,0.4318 v 7.975599 q 0,0.254 0.1778,0.4572 0.2032,0.1778 0.4572,0.1778 h 11.6078 v 2.7432 z m 17.579414,0 q -0.9144,0 -1.6764,-0.4572 -0.7366,-0.4572 -1.1938,-1.1938 -0.4318,-0.7366 -0.4318,-1.651 V 77.661068 h 2.7432 v 4.6482 h 6.0452 v 2.7432 h -6.0452 v 8.610599 q 0,0.254 0.1778,0.4572 0.2032,0.1778 0.4572,0.1778 h 5.4102 v 2.7432 z m 8.077412,0 v 0 -14.731999 h 2.7432 v 14.731999 z m 0,-16.814799 v 0 -2.7432 h 2.7432 v 2.7432 z m 13.368171,16.814799 v 0 l -8.128,-14.731999 h 3.175 l 6.3246,11.633199 6.3246,-11.633199 h 3.175 l -8.128,14.731999 z m 15.76917,0 q -0.9144,0 -1.651,-0.4572 -0.7366,-0.4572 -1.1938,-1.1938 -0.4572,-0.7366 -0.4572,-1.651 v -8.127999 q 0,-0.9144 0.4572,-1.651 0.4572,-0.7366 1.1938,-1.1938 0.7366,-0.4572 1.651,-0.4572 h 8.382 q 0.9144,0 1.651,0.4572 0.762,0.4318 1.1938,1.1938 0.4572,0.762 0.4572,1.651 v 5.435599 h -12.2428 v 2.6162 q 0,0.254 0.1778,0.4572 0.2032,0.1778 0.4572,0.1778 h 11.6078 v 2.7432 z m -0.5588,-8.559799 h 9.4742 v -2.794 q 0,-0.254 -0.1778,-0.4318 -0.1778,-0.2032 -0.4318,-0.2032 h -8.2296 q -0.254,0 -0.4572,0.2032 -0.1778,0.1778 -0.1778,0.4318 z"
         id="path1" />
      <path
         style="font-weight:500;font-family:Orbitron;-inkscape-font-specification:'Orbitron Medium';text-align:center;text-anchor:middle;fill:#eaeaea;fill-opacity:1;stroke:none"
         d="m 145.46726,97.041267 v 0 -3.1496 l 12.319,-15.011399 0.635,-0.127 v 3.0988 l -12.319,15.036799 z"
         id="path2" />
      <path
         style="font-family:Orbitron;-inkscape-font-specification:Orbitron;text-align:center;text-anchor:middle;fill:#eaeaea;fill-opacity:1;stroke:none"
         d="m 170.85877,97.041267 q -0.8382,0 -1.5494,-0.4064 -0.6858,-0.4064 -1.0922,-1.0922 -0.4064,-0.7112 -0.4064,-1.5494 v -0.7112 h 2.0574 v 0.7112 q 0,0.4064 0.2794,0.7112 0.3048,0.2794 0.7112,0.2794 h 12.192 q 0.4064,0 0.6858,-0.2794 0.3048,-0.3048 0.3048,-0.7112 v -4.089399 q 0,-0.4064 -0.3048,-0.6858 -0.2794,-0.2794 -0.6858,-0.2794 h -12.192 q -0.8382,0 -1.5494,-0.4064 -0.6858,-0.4318 -1.0922,-1.1176 -0.4064,-0.6858 -0.4064,-1.524 v -4.0894 q 0,-0.8382 0.4064,-1.524 0.4064,-0.7112 1.0922,-1.1176 0.7112,-0.4064 1.5494,-0.4064 h 12.192 q 0.8382,0 1.524,0.4064 0.7112,0.4064 1.1176,1.1176 0.4064,0.6858 0.4064,1.524 v 0.7112 h -2.0574 v -0.7112 q 0,-0.4064 -0.3048,-0.6858 -0.2794,-0.3048 -0.6858,-0.3048 h -12.192 q -0.4064,0 -0.7112,0.3048 -0.2794,0.2794 -0.2794,0.6858 v 4.0894 q 0,0.4064 0.2794,0.6858 0.3048,0.2794 0.7112,0.2794 h 12.192 q 0.8382,0 1.524,0.4318 0.7112,0.4064 1.1176,1.0922 0.4064,0.6858 0.4064,1.524 v 4.089399 q 0,0.8382 -0.4064,1.5494 -0.4064,0.6858 -1.1176,1.0922 -0.6858,0.4064 -1.524,0.4064 z m 20.84919,5.842003 v 0 -2.1082 h 9.1948 q 0.4064,0 0.6858,-0.3048 0.3048,-0.2794 0.3048,-0.685803 v -2.7432 h -9.8298 q -0.8382,0 -1.5494,-0.4064 -0.6858,-0.4318 -1.1176,-1.1176 -0.4064,-0.7112 -0.4064,-1.5494 V 82.360068 h 2.0828 v 11.607799 q 0,0.4064 0.2794,0.7112 0.3048,0.2794 0.7112,0.2794 h 8.8392 q 0.4064,0 0.6858,-0.2794 0.3048,-0.3048 0.3048,-0.7112 V 82.360068 h 2.0828 v 17.424399 q 0,0.863603 -0.4064,1.549403 -0.4064,0.7112 -1.1176,1.1176 -0.6858,0.4318 -1.5494,0.4318 z m 15.13417,-5.842003 v 0 -14.731999 h 11.938 q 0.8382,0 1.524,0.4318 0.7112,0.4064 1.1176,1.1176 0.4318,0.6858 0.4318,1.524 v 11.658599 h -2.0828 V 85.382668 q 0,-0.4064 -0.3048,-0.6858 -0.2794,-0.3048 -0.6858,-0.3048 h -8.8392 q -0.4064,0 -0.7112,0.3048 -0.3048,0.2794 -0.3048,0.6858 v 11.658599 z m 21.25555,0 q -0.8636,0 -1.5748,-0.4064 -0.6858,-0.4318 -1.0922,-1.1176 -0.4064,-0.7112 -0.4064,-1.5494 V 77.483268 h 2.0828 v 4.826 h 6.3754 v 2.0828 h -6.3754 v 9.575799 q 0,0.4064 0.2794,0.7112 0.3048,0.2794 0.7112,0.2794 h 5.3848 v 2.0828 z m 10.91776,0 q -0.8382,0 -1.5494,-0.4064 -0.6858,-0.4318 -1.1176,-1.1176 -0.4064,-0.7112 -0.4064,-1.5494 v -5.333999 h 12.9032 v -3.2512 q 0,-0.4064 -0.3048,-0.6858 -0.2794,-0.3048 -0.6858,-0.3048 h -11.9126 v -2.0828 h 11.9126 q 0.8636,0 1.5494,0.4318 0.7112,0.4064 1.1176,1.1176 0.4318,0.6858 0.4318,1.524 v 11.658599 z m 0,-2.0828 h 9.8298 v -4.2418 h -10.8204 v 3.2512 q 0,0.4064 0.2794,0.7112 0.3048,0.2794 0.7112,0.2794 z m 14.54998,2.0828 v 0 -0.0254 l 6.1468,-7.467599 -6.1468,-7.2136 v -0.0254 h 2.7432 l 4.7752,5.588 4.8006,-5.588 h 2.7178 v 0.0254 l -6.1468,7.2136 6.1722,7.467599 v 0.0254 h -2.7432 l -4.8006,-5.8928 -4.7752,5.8928 z"
         id="path3" />
    </g>
    <path
       d="m 31.246008,99.708229 q -1.164164,0 -2.15194,-0.564443 -0.952498,-0.599721 -1.552219,-1.552219 -0.564443,-0.987775 -0.564443,-2.151939 V 89.689363 L 25.319354,88.666309 V 85.27965 l 1.658052,-0.881942 v -5.785543 q 0,-1.199441 0.564443,-2.151939 0.599721,-0.987776 1.552219,-1.552219 0.987776,-0.599721 2.15194,-0.599721 h 1.023053 v 2.928049 h -1.023053 q -0.564443,0 -0.987776,0.423332 -0.388054,0.388055 -0.388054,0.952498 v 6.032487 l -2.963327,2.363606 2.963327,2.434161 v 5.997209 q 0,0.564443 0.388054,0.987775 0.423333,0.388055 0.987776,0.388055 h 1.023053 v 2.892771 z"
       id="text15"
       style="font-size:35.2777px;font-family:Orbitron;-inkscape-font-specification:Orbitron;text-align:center;letter-spacing:0.529167px;text-anchor:middle;fill:#e0e0e0;stroke-width:0.2;stroke-opacity:0.506992"
       aria-label="{" />
    <path
       d="m 271.81623,99.707916 v 0 -2.892771 h 1.02305 q 0.56444,0 0.9525,-0.388055 0.42333,-0.423332 0.42333,-0.987775 v -5.961931 l 2.96333,-2.434162 -2.96333,-2.328328 v -6.103041 q 0,-0.564444 -0.42333,-0.952498 -0.38806,-0.423333 -0.9525,-0.423333 h -1.02305 v -2.928049 h 1.02305 q 1.16417,0 2.11666,0.599721 0.98778,0.564443 1.55222,1.552219 0.59972,0.952498 0.59972,2.15194 v 5.785542 l 1.62278,0.952498 v 3.351381 l -1.62278,1.023054 v 5.714987 q 0,1.164164 -0.59972,2.151939 -0.56444,0.952498 -1.55222,1.552219 -0.95249,0.564443 -2.11666,0.564443 z"
       id="text15-6"
       style="font-size:35.2777px;font-family:Orbitron;-inkscape-font-specification:Orbitron;text-align:center;letter-spacing:0.529167px;text-anchor:middle;fill:#e0e0e0;stroke-width:0.2;stroke-opacity:0.506992"
       aria-label="}" />
  </g>
</svg>
