<svg height="170.498585" viewBox="0 0 22.727146 6.6176235" width="586.515132" xmlns="http://www.w3.org/2000/svg"><g transform="translate(131.857173 -345.19684)"><path d="m-124.12054 345.81349h-.27234l-.61631 1.92758-.63041-1.92758h-.27446l-.58632 2.86244h.49918l.31468-1.54199.58632 1.57938h.18415l.58631-1.57938.30304 1.54199h.50059z" fill="#0071ba"/><path d="m-122.89273 347.41101c.0691-.30621.24518-.45932.52881-.45932.3101 0 .48225.15311.51718.45932zm1.54517.0956c0-.2794-.0938-.51047-.28081-.69109-.18662-.18133-.43463-.27164-.74331-.27164-.29033 0-.53939.10231-.74683.30657-.20743.20425-.31079.47095-.31079.8008 0 .33479.0942.59514.28328.78211.18873.18662.44555.27975.77011.27975.34713 0 .60854-.0691.78352-.20814l-.19297-.37359c-.11818.11607-.29034.17357-.51682.17357-.18133 0-.32597-.0459-.43356-.13794-.1069-.0928-.1651-.22225-.17463-.38911h1.52047c.0282-.12136.0423-.21167.0423-.27129" fill="#0071ba"/><path d="m-120.18591 348.30156c-.11924 0-.20285-.0314-.25012-.0928-.048-.0617-.0716-.16757-.0716-.3175v-.91616h.5842v-.39229h-.5842v-.60502l-.49707.25859v.34643h-.24659v.39229h.24659v1.05833c0 .21802.0568.38558.1711.50341.11359.11748.27693.17639.4886.17639.21343 0 .37782-.0194.49318-.0582v-.44908c-.10336.0635-.21449.0956-.33408.0956" fill="#0071ba"/><path d="m-118.38586 347.88539c0 .29281-.14922.43921-.44767.43921-.2212 0-.33162-.0935-.33162-.28117 0-.25258.19615-.37888.58879-.37888.042 0 .10583.009.1905.0254zm.49495.14817v-.44697c0-.40499-.0762-.67981-.22649-.82515-.15099-.14499-.38911-.21766-.71402-.21766-.2353 0-.43921.0406-.60995.121l.10724.37888c.12595-.0614.28223-.0917.4692-.0917.31715 0 .47484.12312.47484.36901-.0794-.0198-.14817-.0293-.20673-.0293-.34043 0-.60325.0684-.78811.20496-.18485.13688-.27693.32597-.27693.56868 0 .20672.0653.36653.19615.47942.13158.11254.3115.16863.54151.16863.12136 0 .23848-.0233.35102-.0695.11147-.0459.19014-.10513.2353-.1785.0194.061.0582.11782.115.17039.0572.0512.12171.0776.19262.0776.0649 0 .12241-.008.17321-.0243.0504-.0166.096-.0596.13723-.12982-.11394-.0716-.17109-.24695-.17109-.52564" fill="#0071ba"/><path d="m-116.97439 348.038v-2.34915l-.49706.25824v2.3054c0 .30727.11218.46073.33796.46073.18556 0 .31644-.0713.39334-.21485-.15628-.0494-.23424-.20284-.23424-.46037" fill="#0071ba"/><path d="m-115.24945 348.13551c-.0914.11959-.21378.17956-.36936.17956-.33796 0-.50588-.23071-.50588-.69144 0-.21484.0452-.38171.13617-.50165.0917-.11959.2152-.17992.36971-.17992.3369 0 .50553.22719.50553.68157 0 .22154-.0451.39194-.13617.51188m.38453-1.30246c-.17886-.19296-.43039-.28927-.75389-.28927-.30727 0-.55456.10019-.74224.30127-.18733.20002-.28117.46002-.28117.77858 0 .32949.09.59337.26917.79199.17992.19861.4311.29774.75424.29774.3175 0 .56692-.0981.7486-.29422.18273-.1972.27375-.46178.27375-.79551 0-.33408-.0896-.59831-.26846-.79058" fill="#0071ba"/><path d="m-110.15485 347.60426.81668-1.02164h-.56656l-.50059.63923-.44909-.63923h-.57079l.75106 1.02164-.81668 1.07033h.58879l.49036-.68122.5468.68122h.60255z" fill="#0071ba"/><path d="m-111.73028 346.55591-.50024.25823-.001 1.86055h.50271z" fill="#0071ba"/><path d="m-112.23221 345.32913v.94932l.91299-.47448z" fill="#0071ba"/><path d="m-113.76288 347.04617c.0713-.0702.16439-.10513.27799-.10513.10901 0 .1972.0363.26564.10936.0681.0727.10195.16193.10195.26776 0 .127-.0318.22754-.0949.30022-.0642.0727-.15452.10971-.2727.10971-.11783 0-.21167-.0381-.28116-.11289-.0695-.0744-.10443-.17357-.10443-.29704 0-.11112.036-.20143.1076-.27199m.54434 1.19909c-.0684 0-.15205.01-.24836.0289-.097.0198-.16545.0296-.20637.0296-.0917 0-.13794-.0257-.13794-.0783 0-.0296.031-.0586.0931-.0868.0614-.0279.0963-.042.10619-.042l.0815.012c.0596.006.1076.01.14252.01.22578 0 .4124-.0716.56021-.21343.14746-.14323.2212-.33337.2212-.5715 0-.12982-.0247-.24589-.0748-.3563l.20708-.10548-.00071-.46461-.5087.26564c-.0328-.0212-.048-.0268-.048-.0268-.12841-.0702-.28822-.10513-.47907-.10513-.24413 0-.44944.0727-.61666.21943-.16686.1464-.25012.33161-.25012.55597 0 .28364.12136.50271.36407.65794-.0762.031-.14182.0797-.19897.1464-.0571.066-.0857.13441-.0857.20285 0 .2413.17074.36159.51294.36159.0561 0 .13864-.007.24906-.0201.10936-.0123.19191-.0194.248-.0194.20567 0 .30797.0621.30797.18592 0 .0727-.0462.12982-.13934.17215-.0924.0413-.21026.0624-.35349.0624-.21343 0-.40675-.0787-.58032-.23459l-.31432.38064c.26352.18839.55845.28293.88477.28293.27305 0 .50588-.06.69955-.18062.19368-.1203.29034-.2861.29034-.49671 0-.38171-.24165-.57221-.72566-.57221" fill="#0071ba"/><path d="m-130.06164 347.0117v.81668l.74789-.43744z" fill="#0071ba"/><path d="m-130.20666 345.41284s-.86219.4766-1.00612.55845c-.24836.14181-.51047.20849-.51047.79269s-.006 1.14053.005 1.28517c.0113.14428.0667.68156.5521.42121.48542-.25999.87912-.51681.87912-.51681s.00035-1.78718.003-2.12584c.002-.30833.0773-.41487.0773-.41487" fill="#00a885"/><path d="m-127.86951 348.00354s-.00071-.95638-.002-1.12183c-.002-.28575.0645-.54328-.44521-.82903-.50941-.2861-.98813-.56797-1.11936-.62865-.13159-.0603-.60925-.28116-.61983.26917-.0106.55068-.006 1.04669-.006 1.04669s1.47884.76376 1.77729.92357c.35455.18909.41487.34008.41487.34008" fill="#7e3e98"/><g fill="#0071ba"><path d="m-131.29498 348.72874s.85055.49706.99448.57856c.24906.14075.4385.32667.94051.0279.50235-.29915.98495-.57361 1.10313-.65757.11854-.0836.55175-.40605.0797-.69004-.47202-.28328-.90805-.48189-.90805-.48189s-1.49754.89429-1.79141 1.06292c-.28328.16192-.41839.16016-.41839.16016"/><path d="m-126.07186 350.24562-.23671 1.0795h-.16122l.28539-1.29505h.16475l.51082 1.0601.23495-1.0601h.16122l-.28575 1.29505h-.15487z"/><path d="m-124.58494 350.49401c-.21343 0-.36512.21167-.36512.43286 0 .17674.10301.29139.27975.29139.21343 0 .36477-.21166.36477-.43321 0-.17639-.10301-.29104-.2794-.29104m.004-.13017c.26599 0 .42898.16898.42898.41733 0 .29492-.22119.56691-.52211.56691-.26811 0-.42933-.16686-.42933-.41521 0-.29528.21942-.56903.52246-.56903"/><path d="m-123.33508 350.57187-.41169.75318h-.14535l-.0914-.93768h.14535l.0624.74753.41134-.74753h.12806l.0797.74753.39228-.74753h.15911l-.50659.93768h-.1457z"/><path d="m-121.64076 350.49401c-.11853 0-.22542.0737-.28716.16122l-.0914.41134c.0466.0854.14746.15169.28328.15169.21343 0 .35701-.2159.35701-.44062 0-.17497-.10654-.28363-.26176-.28363m-.5147 1.18816h-.14535l.28716-1.29505h.14535l-.0307.13405c.0794-.097.1845-.15733.31044-.15733.21378 0 .36336.14181.36336.38664 0 .3048-.1905.5976-.49142.5976-.14746 0-.26387-.0677-.32632-.17074z"/><path d="m-120.6975 351.21815c.11642 0 .22507-.072.2854-.1591l.0931-.41346c-.0469-.0836-.14781-.15169-.28328-.15169-.21378 0-.35736.2159-.35736.44062 0 .17462.10477.28363.26211.28363m.43462-.83079h.1457l-.20779.93768h-.14534l.0289-.13405c-.0776.097-.18239.15698-.30868.15698-.21555 0-.36301-.14146-.36301-.38629 0-.30445.18803-.59796.49106-.59796.1457 0 .26423.0681.32632.1711z"/><path d="m-119.86516 350.38722h.1457l-.0332.14358c.0935-.10689.18873-.16298.34995-.16298l-.0332.14922c-.0116-.004-.0409-.007-.0737-.007-.10901 0-.21167.0737-.27199.15311l-.1457.66216h-.1457z"/><path d="m-119.39734 351.12308.13582-.60995h-.15522l.0289-.12594h.15558l.0561-.25647h.1457l-.0564.25647h.1905l-.0293.12594h-.19014l-.12806.57891c-.002.0113-.004.025-.004.0385 0 .0568.031.0878.0928.0878.0353 0 .0702-.0138.0892-.031l.0176.11641c-.0346.0272-.0854.0444-.14146.0444-.13018 0-.21379-.0543-.21379-.1711 0-.01.002-.0346.006-.054"/><path d="m-117.92213 350.49401c-.21343 0-.36477.21167-.36477.43286 0 .17674.10266.29139.2794.29139.21343 0 .36477-.21166.36477-.43321 0-.17639-.10266-.29104-.2794-.29104m.004-.13017c.26599 0 .42933.16898.42933.41733 0 .29492-.22154.56691-.52246.56691-.26811 0-.42933-.16686-.42933-.41521 0-.29528.21942-.56903.52246-.56903"/><path d="m-117.18662 350.51539h-.15522l.0293-.12806h.15522l.0155-.0716c.0427-.19227.14147-.30515.30657-.30515.0621 0 .11641.0116.16898.0445l-.0564.10512c-.0272-.0212-.0639-.0293-.10089-.0293-.0949 0-.14782.0642-.17286.18486l-.0155.0716h.19015l-.0289.12806h-.19014l-.17886.80962h-.14535z"/><path d="m-115.59669 351.12308-.13017-.19826.18062-.091.12206.18451c.10477-.0991.17286-.24871.17286-.42122 0-.24307-.17498-.38665-.39617-.38665-.26952 0-.49107.23707-.49107.54963 0 .24448.17286.38594.39617.38594.0504 0 .0988-.007.1457-.0229m.29104.0716.0716.11113-.18204.0907-.0663-.10089c-.0833.0353-.17674.0526-.2734.0526-.34784 0-.61948-.21766-.61948-.57467 0-.42686.3242-.76482.74189-.76482.34713 0 .61877.21731.61877.57255 0 .25471-.11253.4759-.29104.61348"/><path d="m-114.71958 350.97357c-.004.0173-.01.0406-.01.0603 0 .0946.0759.13371.17498.13371.0949 0 .18803-.066.25012-.12806l.14393-.65229h.20356l-.20779.93769h-.20391l.0293-.12806c-.0776.0737-.18415.15134-.32032.15134-.17462 0-.28751-.0893-.28751-.23671 0-.0176.006-.0582.01-.0776l.14358-.64664h.2039z"/><path d="m-113.13585 350.75206c0-.1203-.0815-.22119-.24659-.22119-.14923 0-.26776.11853-.29316.24835h.53799c.002-.006.002-.0194.002-.0272m-.23107-.38841c.24271 0 .41381.16334.41381.41557 0 .0508-.01.11466-.0176.14358h-.72602l-.002.0332c0 .10689.0953.22542.28539.22542.0854 0 .18415-.0272.25048-.078l.0639.14181c-.0871.0642-.21131.10266-.32985.10266-.29104 0-.47378-.16087-.47378-.4191 0-.30656.22931-.56515.53587-.56515"/><path d="m-112.81204 351.03937c.0522.0698.18274.14781.32032.14781.10478 0 .16898-.0603.16898-.12629 0-.0642-.0871-.0952-.18662-.13018-.13546-.0483-.29668-.10477-.29668-.26211 0-.1591.13194-.3048.37253-.3048.1591 0 .30304.0642.38065.15346l-.10866.1337c-.0448-.0617-.16122-.12382-.27763-.12382-.10478 0-.1651.0487-.1651.11042 0 .0564.0836.0857.18062.12029.13758.0487.3048.1069.3048.26988 0 .17286-.14358.32032-.39053.32032-.17039 0-.32561-.0582-.42298-.16686z"/><path d="m-111.92872 351.09761.11818-.53375h-.15487l.0406-.17674h.15487l.0564-.25612h.20391l-.0564.25612h.19014l-.0406.17674h-.19014l-.1069.4833c-.002.01-.004.0236-.004.037 0 .0522.0307.0833.0928.0833.0293 0 .0621-.0113.0776-.0251l.0116.16334c-.0346.0268-.091.0423-.14958.0423-.15099 0-.25012-.06-.25012-.19015 0-.0116.002-.0385.006-.0603"/></g></g></svg>