<?xml version="1.0" encoding="UTF-8" standalone="no"?>
<!-- Created with Inkscape (http://www.inkscape.org/) -->
<svg
   xmlns:dc="http://purl.org/dc/elements/1.1/"
   xmlns:cc="http://creativecommons.org/ns#"
   xmlns:rdf="http://www.w3.org/1999/02/22-rdf-syntax-ns#"
   xmlns:svg="http://www.w3.org/2000/svg"
   xmlns="http://www.w3.org/2000/svg"
   xmlns:xlink="http://www.w3.org/1999/xlink"
   xmlns:sodipodi="http://sodipodi.sourceforge.net/DTD/sodipodi-0.dtd"
   xmlns:inkscape="http://www.inkscape.org/namespaces/inkscape"
   width="500"
   height="112.17"
   id="svg2"
   sodipodi:version="0.32"
   inkscape:version="0.46"
   version="1.0"
   sodipodi:docname="Logo Metrohm.svg"
   inkscape:output_extension="org.inkscape.output.svg.inkscape">
  <defs
     id="defs4">
    <inkscape:perspective
       sodipodi:type="inkscape:persp3d"
       inkscape:vp_x="0 : 526.18109 : 1"
       inkscape:vp_y="0 : 1000 : 0"
       inkscape:vp_z="744.09448 : 526.18109 : 1"
       inkscape:persp3d-origin="372.04724 : 350.78739 : 1"
       id="perspective10" />
    <clipPath
       id="clipPath2524"
       clipPathUnits="userSpaceOnUse">
      <path
         id="path2526"
         d="M 0,841.98 L 595.2,841.98 L 595.2,0 L 0,0 L 0,841.98 z" />
    </clipPath>
    <linearGradient
       id="linearGradient2508"
       spreadMethod="pad"
       gradientTransform="matrix(85.039001,0,0,-85.039001,1.9975e-2,-8.913982)"
       gradientUnits="userSpaceOnUse"
       y2="0"
       x2="1"
       y1="0"
       x1="0">
      <stop
         id="stop2510"
         offset="0"
         style="stop-opacity:1;stop-color:#009690" />
      <stop
         id="stop2512"
         offset="1"
         style="stop-opacity:1;stop-color:#ffd400" />
    </linearGradient>
    <clipPath
       id="clipPath2504"
       clipPathUnits="userSpaceOnUse">
      <path
         id="path2506"
         d="M 0,-0.266678 L 1,-0.266678 L 1,0 L 0,0 L 0,-0.266678 z" />
    </clipPath>
    <clipPath
       id="clipPath2496"
       clipPathUnits="userSpaceOnUse">
      <path
         id="path2498"
         d="M 0,841.98 L 595.2,841.98 L 595.2,0 L 0,0 L 0,841.98 z" />
    </clipPath>
    <clipPath
       id="clipPath2490"
       clipPathUnits="userSpaceOnUse">
      <path
         id="path2492"
         d="M 85.059,13.764 L 0.02,13.764 L 0.02,-8.914 L 85.059,-8.914 L 85.059,13.764 z" />
    </clipPath>
    <clipPath
       id="clipPath2450"
       clipPathUnits="userSpaceOnUse">
      <path
         id="path2452"
         d="M 0.007996,671.401 L 595.2,671.401 L 595.2,331.244 L 0.007996,331.244 L 0.007996,671.401 z" />
    </clipPath>
    <clipPath
       id="clipPath2436"
       clipPathUnits="userSpaceOnUse">
      <path
         id="path2438"
         d="M 0,841.98 L 595.2,841.98 L 595.2,0 L 0,0 L 0,841.98 z" />
    </clipPath>
    <clipPath
       id="clipPath2424"
       clipPathUnits="userSpaceOnUse">
      <path
         id="path2426"
         d="M 0,841.98 L 595.2,841.98 L 595.2,0 L 0,0 L 0,841.98 z" />
    </clipPath>
    <clipPath
       id="clipPath2418"
       clipPathUnits="userSpaceOnUse">
      <path
         id="path2420"
         d="M 603.799,849.984 L -8.484,849.984 L -8.484,-8.913 L 603.799,-8.913 L 603.799,849.984 z" />
    </clipPath>
    <inkscape:perspective
       id="perspective2410"
       inkscape:persp3d-origin="372.04724 : 350.78739 : 1"
       inkscape:vp_z="744.09448 : 526.18109 : 1"
       inkscape:vp_y="0 : 1000 : 0"
       inkscape:vp_x="0 : 526.18109 : 1"
       sodipodi:type="inkscape:persp3d" />
    <linearGradient
       inkscape:collect="always"
       xlink:href="#linearGradient2508"
       id="linearGradient2633"
       gradientUnits="userSpaceOnUse"
       gradientTransform="matrix(85.039001,0,0,-85.039001,1.9975e-2,-8.913982)"
       spreadMethod="pad"
       x1="0"
       y1="0"
       x2="1"
       y2="0" />
    <linearGradient
       inkscape:collect="always"
       xlink:href="#linearGradient2508"
       id="linearGradient2683"
       gradientUnits="userSpaceOnUse"
       gradientTransform="matrix(85.039001,0,0,-85.039001,1.9975e-2,-8.913982)"
       spreadMethod="pad"
       x1="0"
       y1="0"
       x2="1"
       y2="0" />
  </defs>
  <sodipodi:namedview
     id="base"
     pagecolor="#ffffff"
     bordercolor="#666666"
     borderopacity="1.0"
     inkscape:pageopacity="0.0"
     inkscape:pageshadow="2"
     inkscape:zoom="0.98994949"
     inkscape:cx="169.21666"
     inkscape:cy="279.24727"
     inkscape:document-units="px"
     inkscape:current-layer="layer1"
     showgrid="false"
     inkscape:window-width="1280"
     inkscape:window-height="750"
     inkscape:window-x="-8"
     inkscape:window-y="-8" />
  <metadata
     id="metadata7">
    <rdf:RDF>
      <cc:Work
         rdf:about="">
        <dc:format>image/svg+xml</dc:format>
        <dc:type
           rdf:resource="http://purl.org/dc/dcmitype/StillImage" />
      </cc:Work>
    </rdf:RDF>
  </metadata>
  <g
     inkscape:label="Ebene 1"
     inkscape:groupmode="layer"
     id="layer1"
     transform="translate(-289.00105,-826.91986)">
    <g
       id="g2699"
       transform="matrix(3.0142943,0,0,3.0142943,-572.01184,-1841.3166)">
      <path
         d="M 323.3408,910.7895 C 324.4408,908.77075 325.0683,906.44825 325.0683,903.92325 C 325.0683,895.43575 318.1883,888.5545 309.69955,888.5545 C 301.2108,888.5545 294.3308,895.43575 294.3308,903.92325 C 294.3308,906.44825 294.9283,908.77075 295.9858,910.7895 L 289.0033,910.7895 L 289.0033,918.702 L 306.32455,918.702 L 306.32455,910.7095 C 303.82955,909.46575 302.1108,906.8995 302.1108,903.92325 C 302.1108,899.732 305.5083,896.3345 309.69955,896.3345 C 313.8908,896.3345 317.2883,899.732 317.2883,903.92325 C 317.2883,906.89825 315.56955,909.46325 313.07705,910.707 L 313.07705,918.702 L 330.3308,918.702 L 330.3308,910.7895 L 323.3408,910.7895"
         style="fill:#009690;fill-opacity:1;fill-rule:nonzero;stroke:none"
         id="path2468" />
      <path
         d="M 323.3408,910.7895 C 324.4408,908.77075 325.0683,906.44825 325.0683,903.92325 C 325.0683,895.43575 318.1883,888.5545 309.69955,888.5545 C 301.2108,888.5545 294.3308,895.43575 294.3308,903.92325 C 294.3308,906.44825 294.9283,908.77075 295.9858,910.7895 L 289.0033,910.7895 L 289.0033,918.702 L 306.32455,918.702 L 306.32455,910.7095 C 303.82955,909.46575 302.1108,906.8995 302.1108,903.92325 C 302.1108,899.732 305.5083,896.3345 309.69955,896.3345 C 313.8908,896.3345 317.2883,899.732 317.2883,903.92325 C 317.2883,906.89825 315.56955,909.46325 313.07705,910.707 L 313.07705,918.702 L 330.3308,918.702 L 330.3308,910.7895 L 323.3408,910.7895 z"
         style="fill:none;stroke:#009690;stroke-width:0.08500001;stroke-linecap:butt;stroke-linejoin:miter;stroke-miterlimit:4;stroke-dasharray:none;stroke-opacity:1"
         id="path2470" />
      <path
         d="M 337.84705,918.75575 L 340.48955,891.48825 L 347.42205,891.48825 L 348.82705,901.89075 C 349.0358,903.472 349.21205,904.98825 349.3533,906.4395 C 349.49455,907.8895 349.60955,909.2995 349.6958,910.6695 C 349.91705,908.267 350.10455,906.37075 350.25955,904.982 C 350.4133,903.59325 350.53955,902.56325 350.6383,901.89075 L 352.3758,891.48825 L 359.2333,891.48825 L 361.50705,918.75575 L 356.05455,918.75575 L 355.48205,906.09325 C 355.4683,905.79575 355.4508,905.34575 355.4258,904.74825 C 355.2658,901.43575 355.1858,898.722 355.1858,896.6045 L 351.6733,918.75575 L 347.7733,918.75575 L 344.46455,896.45575 C 344.46455,898.312 344.35455,900.96325 344.13205,904.412 C 344.08205,905.19825 344.04455,905.782 344.0208,906.16825 L 343.1883,918.75575 L 337.84705,918.75575"
         style="fill:#231f20;fill-opacity:1;fill-rule:nonzero;stroke:none"
         id="path2472" />
      <path
         d="M 372.3183,908.04825 C 372.28455,906.7095 372.05705,905.717 371.64205,905.072 C 371.2258,904.42825 370.60205,904.10575 369.7708,904.10575 C 368.9508,904.10575 368.32205,904.4445 367.88955,905.1195 C 367.4558,905.79575 367.2383,906.77825 367.2383,908.067 L 372.3183,908.04825 z M 367.2383,910.95325 L 367.2383,911.10325 C 367.2383,912.4695 367.4683,913.5195 367.9258,914.2545 C 368.3808,914.98575 369.0308,915.35325 369.8758,915.35325 C 370.41455,915.35325 370.87455,915.1795 371.2558,914.8295 C 371.6358,914.48075 371.94455,913.94825 372.1783,913.23575 L 376.26955,913.23575 C 375.89205,915.0695 375.1158,916.502 373.93455,917.537 C 372.75455,918.572 371.30705,919.0895 369.59205,919.0895 C 367.4433,919.0895 365.73455,918.2345 364.4658,916.52825 C 363.19705,914.82075 362.5633,912.51575 362.5633,909.612 C 362.5633,906.672 363.1983,904.347 364.46705,902.64075 C 365.73705,900.9345 367.4458,900.0795 369.5983,900.0795 C 371.87955,900.0795 373.6008,900.92325 374.76455,902.607 C 375.92955,904.29325 376.5108,906.78325 376.5108,910.07825 L 376.5108,910.95325 L 367.2383,910.95325"
         style="fill:#231f20;fill-opacity:1;fill-rule:nonzero;stroke:none"
         id="path2474" />
      <path
         d="M 379.3433,918.75575 L 379.3433,904.39575 L 377.39205,904.39575 L 377.39205,900.452 L 379.3433,900.452 L 379.3433,895.182 L 384.23955,895.182 L 384.23955,900.452 L 386.19205,900.452 L 386.19205,904.39575 L 384.23955,904.39575 L 384.23955,918.75575 L 379.3433,918.75575"
         style="fill:#231f20;fill-opacity:1;fill-rule:nonzero;stroke:none"
         id="path2476" />
      <path
         d="M 387.9258,918.75575 L 387.9258,900.452 L 392.7158,900.452 L 392.7158,903.67325 C 393.1283,902.4745 393.67955,901.5795 394.36455,900.987 C 395.05455,900.3945 395.8858,900.092 396.86205,900.07825 L 396.86205,904.89325 L 396.52205,904.89325 C 395.17955,904.89325 394.2683,905.2095 393.7858,905.83825 C 393.30205,906.46825 393.06205,907.8995 393.06205,910.132 L 393.06205,918.75575 L 387.9258,918.75575"
         style="fill:#231f20;fill-opacity:1;fill-rule:nonzero;stroke:none"
         id="path2478" />
      <path
         d="M 404.47205,914.647 C 405.31455,914.647 405.72705,914.202 406.18955,913.312 C 406.6533,912.42325 406.6408,911.157 406.6408,909.512 C 406.6408,907.882 406.6533,906.622 406.18955,905.73075 C 405.72705,904.84075 405.31455,904.39575 404.47205,904.39575 C 403.6333,904.39575 403.2233,904.837 402.7658,905.722 C 402.3108,906.60575 402.3208,907.86825 402.3208,909.512 C 402.3208,911.16825 402.3108,912.43825 402.7658,913.322 C 403.2233,914.20575 403.6333,914.647 404.47205,914.647 z M 411.67705,909.55575 C 411.67705,912.472 411.02205,914.7895 409.71455,916.5095 C 408.4033,918.22825 406.65705,919.08825 404.47205,919.08825 C 402.2783,919.08825 400.5308,918.23075 399.2333,916.51825 C 397.9383,914.8045 397.28955,912.4845 397.28955,909.55575 C 397.28955,906.65325 397.9383,904.347 399.2333,902.6395 C 400.5308,900.93325 402.2783,900.07825 404.47205,900.07825 C 406.66955,900.07825 408.41705,900.93575 409.7233,902.6495 C 411.02455,904.362 411.67705,906.6645 411.67705,909.55575"
         style="fill:#231f20;fill-opacity:1;fill-rule:nonzero;stroke:none"
         id="path2480" />
      <path
         d="M 421.5158,918.75575 L 421.5158,907.677 C 421.5158,906.632 421.3958,905.9145 421.1558,905.52325 C 420.91705,905.132 420.50955,904.9345 419.9333,904.9345 C 419.3108,904.9345 418.8608,905.16575 418.58705,905.6245 C 418.3108,906.087 418.1733,906.84325 418.1733,907.90075 L 418.1733,918.75575 L 413.25705,918.75575 L 413.25705,889.78575 L 418.1733,889.78575 L 418.1733,902.66575 C 418.83205,901.8395 419.5308,901.23075 420.2708,900.837 C 421.00955,900.442 421.8183,900.2445 422.6958,900.2445 C 424.0783,900.2445 425.03955,900.6445 425.5783,901.44575 C 426.11955,902.24325 426.3908,903.84825 426.3908,906.2595 L 426.3908,918.75575 L 421.5158,918.75575"
         style="fill:#231f20;fill-opacity:1;fill-rule:nonzero;stroke:none"
         id="path2482" />
      <path
         d="M 428.27205,918.75575 L 428.27205,900.452 L 432.6208,900.452 L 432.6208,903.292 C 433.20455,902.2645 433.8683,901.4995 434.59955,900.99825 C 435.33705,900.49575 436.15955,900.2445 437.06455,900.2445 C 437.9833,900.2445 438.73205,900.50325 439.3058,901.017 C 439.87955,901.5295 440.2658,902.2895 440.4608,903.292 C 441.1158,902.252 441.80705,901.48325 442.5333,900.98825 C 443.25955,900.49325 444.0408,900.2445 444.8833,900.2445 C 446.1133,900.2445 446.97455,900.707 447.46455,901.632 C 447.95455,902.5545 448.20205,904.45825 448.20205,907.34075 L 448.20205,918.75575 L 443.6133,918.75575 L 443.6133,907.677 C 443.6133,906.6445 443.5083,905.93075 443.3008,905.53325 C 443.09205,905.1345 442.73455,904.9345 442.22705,904.9345 C 441.61455,904.9345 441.17955,905.15325 440.91955,905.58825 C 440.65955,906.02325 440.52955,906.7945 440.52955,907.90075 L 440.52955,918.75575 L 435.94205,918.75575 L 435.94205,907.677 C 435.94205,906.6695 435.8383,905.9545 435.6258,905.532 C 435.4158,905.1095 435.06705,904.897 434.57955,904.897 C 433.9633,904.897 433.5258,905.12825 433.2558,905.58825 C 432.99205,906.04825 432.85705,906.8195 432.85705,907.90075 L 432.85705,918.75575 L 428.27205,918.75575"
         style="fill:#231f20;fill-opacity:1;fill-rule:nonzero;stroke:none"
         id="path2484" />
    </g>
  </g>
</svg>
